control3min_grf.mot
version=1
nRows=10
nColumns 19
inDegrees=yes
endheader
time	1_ground_force_vx	1_ground_force_vy	1_ground_force_vz	1_ground_force_px	1_ground_force_py	1_ground_force_pz	1_ground_torque_x	1_ground_torque_y	1_ground_torque_z	2_ground_force_vx	2_ground_force_vy	2_ground_force_vz	2_ground_force_px	2_ground_force_py	2_ground_force_pz	2_ground_torque_x	2_ground_torque_y	2_ground_torque_z
            2.500000	            0.412749	            0.360218	            0.092234	           -0.233013	            0.005581	           -0.255695	            0.052238	           -0.110718	            0.016975	            0.186735	            0.184825	            0.000577	           -0.232311	            0.006130	           -0.833667	           -0.093884	           -0.009859	            0.018856
            2.500500	            0.320509	            0.901784	           -0.088643	           -0.233013	            0.005581	           -0.255695	            0.228509	           -0.101247	           -0.043745	            0.047494	           -0.183812	           -0.047605	           -0.232311	            0.006130	           -0.833667	           -0.112603	           -0.019649	            0.094232
            2.501000	            0.228921	            0.360969	           -0.090735	           -0.233013	            0.005581	           -0.255695	            0.154160	           -0.000352	            0.122165	           -0.138535	           -0.553120	            0.045017	           -0.232311	            0.006130	           -0.833667	           -0.093927	           -0.000339	            0.000040
            2.501500	            0.412000	            0.721929	           -0.181356	           -0.233013	            0.005581	           -0.255695	            0.101313	           -0.027608	            0.035995	           -0.139282	           -0.368302	           -0.142039	           -0.232311	            0.006130	           -0.833667	           -0.093893	           -0.009792	            0.000006
            2.502000	            0.503605	            0.541877	           -0.228212	           -0.233013	            0.005581	           -0.255695	            0.159534	           -0.082694	           -0.035662	            0.048782	           -0.551774	           -0.142775	           -0.232311	            0.006130	           -0.833667	           -0.074973	           -0.029167	            0.150732
            2.502500	            0.686602	            0.722768	           -0.365462	           -0.233013	            0.005581	           -0.255695	            0.071724	           -0.092359	            0.085116	            0.099058	           -1.473183	            0.088560	           -0.232311	            0.006130	           -0.833667	           -0.093996	            0.027750	            0.075542
            2.503000	            0.503686	            0.721947	           -0.181583	           -0.233013	            0.005581	           -0.255695	            0.138976	           -0.110910	            0.077050	            0.046082	            0.185154	           -0.234003	           -0.232311	            0.006130	           -0.833667	           -0.056254	           -0.028562	           -0.000077
            2.503500	            0.457795	            0.361603	           -0.228871	           -0.233013	            0.005581	           -0.255695	            0.159655	           -0.138176	           -0.037849	           -0.094988	            0.367624	            0.095210	           -0.232311	            0.006130	           -0.833667	           -0.056391	            0.018433	            0.075492
            2.504000	            0.458316	            0.000285	           -0.046994	           -0.233013	            0.005581	           -0.255695	            0.208797	           -0.111155	            0.131341	            0.189455	           -0.552270	            0.138733	           -0.232311	            0.006130	           -0.833667	           -0.131362	           -0.029102	            0.075356
            2.504500	            0.411413	            1.443778	           -0.361688	           -0.233013	            0.005581	           -0.255695	            0.127496	           -0.064664	            0.054544	            0.095796	           -0.552944	            0.232629	           -0.232311	            0.006130	           -0.833667	           -0.056271	           -0.019243	            0.037657
